<svg width="17" height="32" viewBox="0 0 17 32" fill="none" xmlns="http://www.w3.org/2000/svg">
<path id="Rectangle 16" d="M-6 7.74184C-6 7.05295 -6 6.70851 -5.97577 6.41803C-5.69157 3.01149 -2.98851 0.308432 0.418033 0.0242338C0.708512 0 1.05295 0 1.74184 0C2.10141 0 2.2812 0 2.45199 0.00834871C4.40027 0.103588 6.22045 1.00743 7.47383 2.50205C7.58371 2.63307 7.69237 2.7763 7.90969 3.06278L11.433 7.70713C14.5881 11.8661 16.1656 13.9456 16.1392 16.3431C16.1128 18.7407 14.4899 20.785 11.244 24.8735L7.93225 29.0449C7.69365 29.3455 7.57435 29.4957 7.45327 29.6329C6.2087 31.0426 4.4493 31.8922 2.5714 31.9904C2.3887 32 2.19684 32 1.8131 32C1.05802 32 0.680475 32 0.362279 31.9709C-2.99981 31.6633 -5.66331 28.9998 -5.97089 25.6377C-6 25.3195 -6 24.942 -6 24.1869V7.74184Z" fill="white"/>
</svg>
