<svg width="24" height="23" viewBox="0 0 24 23" fill="none" xmlns="http://www.w3.org/2000/svg">
<g id="Settings" clip-path="url(#clip0_235_303)">
<g id="Icon">
<path d="M12 14.3747C13.6569 14.3747 15 13.0875 15 11.4997C15 9.91186 13.6569 8.62467 12 8.62467C10.3431 8.62467 9 9.91186 9 11.4997C9 13.0875 10.3431 14.3747 12 14.3747Z" stroke="#D5BBFF" stroke-width="1.5" stroke-linecap="round" stroke-linejoin="round"/>
<path d="M19.4 14.3747C19.2669 14.6637 19.2272 14.9844 19.286 15.2952C19.3448 15.6061 19.4995 15.893 19.73 16.1188L19.79 16.1763C19.976 16.3543 20.1235 16.5657 20.2241 16.7984C20.3248 17.0311 20.3766 17.2805 20.3766 17.5324C20.3766 17.7843 20.3248 18.0337 20.2241 18.2664C20.1235 18.499 19.976 18.7104 19.79 18.8884C19.6043 19.0666 19.3837 19.208 19.1409 19.3045C18.8981 19.4009 18.6378 19.4506 18.375 19.4506C18.1122 19.4506 17.8519 19.4009 17.6091 19.3045C17.3663 19.208 17.1457 19.0666 16.96 18.8884L16.9 18.8309C16.6643 18.61 16.365 18.4618 16.0406 18.4054C15.7162 18.3491 15.3816 18.3871 15.08 18.5147C14.7842 18.6362 14.532 18.8379 14.3543 19.095C14.1766 19.3521 14.0813 19.6534 14.08 19.9618V20.1247C14.08 20.633 13.8693 21.1205 13.4942 21.48C13.1191 21.8394 12.6104 22.0413 12.08 22.0413C11.5496 22.0413 11.0409 21.8394 10.6658 21.48C10.2907 21.1205 10.08 20.633 10.08 20.1247V20.0384C10.0723 19.7212 9.96512 19.4136 9.77251 19.1555C9.5799 18.8974 9.31074 18.7009 9 18.5913C8.69838 18.4638 8.36381 18.4257 8.03941 18.4821C7.71502 18.5385 7.41568 18.6867 7.18 18.9076L7.12 18.9651C6.93425 19.1433 6.71368 19.2847 6.47088 19.3811C6.22808 19.4776 5.96783 19.5272 5.705 19.5272C5.44217 19.5272 5.18192 19.4776 4.93912 19.3811C4.69632 19.2847 4.47575 19.1433 4.29 18.9651C4.10405 18.7871 3.95653 18.5757 3.85588 18.343C3.75523 18.1103 3.70343 17.8609 3.70343 17.609C3.70343 17.3572 3.75523 17.1078 3.85588 16.8751C3.95653 16.6424 4.10405 16.431 4.29 16.253L4.35 16.1955C4.58054 15.9696 4.73519 15.6828 4.794 15.3719C4.85282 15.061 4.81312 14.7404 4.68 14.4513C4.55324 14.1679 4.34276 13.9262 4.07447 13.7559C3.80618 13.5856 3.49179 13.4942 3.17 13.493H3C2.46957 13.493 1.96086 13.2911 1.58579 12.9316C1.21071 12.5722 1 12.0847 1 11.5763C1 11.068 1.21071 10.5805 1.58579 10.2211C1.96086 9.86161 2.46957 9.65967 3 9.65967H3.09C3.42099 9.65225 3.742 9.54958 4.0113 9.365C4.28059 9.18041 4.48572 8.92246 4.6 8.62467C4.73312 8.33563 4.77282 8.01499 4.714 7.70411C4.65519 7.39323 4.50054 7.10637 4.27 6.88051L4.21 6.82301C4.02405 6.645 3.87653 6.43361 3.77588 6.20093C3.67523 5.96825 3.62343 5.71885 3.62343 5.46697C3.62343 5.21509 3.67523 4.96568 3.77588 4.733C3.87653 4.50032 4.02405 4.28893 4.21 4.11092C4.39575 3.93272 4.61632 3.79135 4.85912 3.69489C5.10192 3.59844 5.36217 3.54879 5.625 3.54879C5.88783 3.54879 6.14808 3.59844 6.39088 3.69489C6.63368 3.79135 6.85425 3.93272 7.04 4.11092L7.1 4.16842C7.33568 4.38936 7.63502 4.53756 7.95941 4.59393C8.28381 4.6503 8.61838 4.61224 8.92 4.48467H9C9.29577 4.36319 9.54802 4.16148 9.72569 3.90437C9.90337 3.64726 9.99872 3.34597 10 3.03759V2.87467C10 2.36634 10.2107 1.87883 10.5858 1.51939C10.9609 1.15994 11.4696 0.958008 12 0.958008C12.5304 0.958008 13.0391 1.15994 13.4142 1.51939C13.7893 1.87883 14 2.36634 14 2.87467V2.96092C14.0013 3.2693 14.0966 3.57059 14.2743 3.8277C14.452 4.08482 14.7042 4.28653 15 4.40801C15.3016 4.53558 15.6362 4.57363 15.9606 4.51726C16.285 4.46089 16.5843 4.31269 16.82 4.09176L16.88 4.03426C17.0657 3.85605 17.2863 3.71468 17.5291 3.61823C17.7719 3.52177 18.0322 3.47212 18.295 3.47212C18.5578 3.47212 18.8181 3.52177 19.0609 3.61823C19.3037 3.71468 19.5243 3.85605 19.71 4.03426C19.896 4.21226 20.0435 4.42365 20.1441 4.65633C20.2448 4.88901 20.2966 5.13842 20.2966 5.3903C20.2966 5.64218 20.2448 5.89159 20.1441 6.12427C20.0435 6.35695 19.896 6.56833 19.71 6.74634L19.65 6.80384C19.4195 7.0297 19.2648 7.31656 19.206 7.62744C19.1472 7.93832 19.1869 8.25896 19.32 8.54801V8.62467C19.4468 8.90812 19.6572 9.14986 19.9255 9.32013C20.1938 9.4904 20.5082 9.58178 20.83 9.58301H21C21.5304 9.58301 22.0391 9.78494 22.4142 10.1444C22.7893 10.5038 23 10.9913 23 11.4997C23 12.008 22.7893 12.4955 22.4142 12.855C22.0391 13.2144 21.5304 13.4163 21 13.4163H20.91C20.5882 13.4176 20.2738 13.5089 20.0055 13.6792C19.7372 13.8495 19.5268 14.0912 19.4 14.3747Z" stroke="#D5BBFF" stroke-width="1.5" stroke-linecap="round" stroke-linejoin="round"/>
</g>
</g>
<defs>
<clipPath id="clip0_235_303">
<rect width="24" height="23" fill="white"/>
</clipPath>
</defs>
</svg>
